<svg version="1.1" xmlns="http://www.w3.org/2000/svg" xmlns:xlink="http://www.w3.org/1999/xlink" width="660" height="308"><defs/><g><g transform="translate(-94,-726) scale(1,1)"><rect fill="#ffffff" stroke="none" x="104" y="736" width="640" height="288"/></g><g transform="translate(-94,-726) scale(1,1)"><path fill="none" stroke="#00a9ff" d="M 104 736 L 744 736 L 744 1024 L 104 1024 L 104 736 Z Z" stroke-miterlimit="10"/></g><g transform="translate(-94,-726) scale(1,1)"><path fill="#ffffff" stroke="none" d="M 188.16666666666666 760 L 427.8333333333333 760 Q 488 760 488 820.1666666666666 L 488 923.8333333333334 Q 488 984 427.8333333333333 984 L 188.16666666666666 984 Q 128 984 128 923.8333333333334 L 128 820.1666666666666 Q 128 760 188.16666666666666 760 Z"/></g><g transform="translate(-94,-726) scale(1,1)"><path fill="none" stroke="#dede13" d="M 188.16666666666666 760 L 427.8333333333333 760 Q 488 760 488 820.1666666666666 L 488 923.8333333333334 Q 488 984 427.8333333333333 984 L 188.16666666666666 984 Q 128 984 128 923.8333333333334 L 128 820.1666666666666 Q 128 760 188.16666666666666 760 Z" stroke-miterlimit="10"/></g><g transform="translate(-94,-726) scale(1,1)"><g><path fill="none" stroke="none"/><text fill="#000000" stroke="none" font-family="Arial" font-size="11px" font-style="normal" font-weight="normal" text-decoration="none" x="269" y="800">    </text><text fill="#000000" stroke="none" font-family="Arial" font-size="11px" font-style="normal" font-weight="normal" text-decoration="none" x="269" y="811">堆(Xmx/Xms)</text></g></g><g transform="translate(-94,-726) scale(1,1)"><path fill="#ffffff" stroke="none" d="M 548.1666666666666 760 L 691.8333333333334 760 Q 728 760 728 796.1666666666666 L 728 787.8333333333334 Q 728 824 691.8333333333334 824 L 548.1666666666666 824 Q 512 824 512 787.8333333333334 L 512 796.1666666666666 Q 512 760 548.1666666666666 760 Z"/></g><g transform="translate(-94,-726) scale(1,1)"><path fill="none" stroke="#c6c6c6" d="M 548.1666666666666 760 L 691.8333333333334 760 Q 728 760 728 796.1666666666666 L 728 787.8333333333334 Q 728 824 691.8333333333334 824 L 548.1666666666666 824 Q 512 824 512 787.8333333333334 L 512 796.1666666666666 Q 512 760 548.1666666666666 760 Z" stroke-miterlimit="10"/></g><g transform="translate(-94,-726) scale(1,1)"><path fill="#ffffff" stroke="none" d="M 548.1666666666666 840 L 691.8333333333334 840 Q 728 840 728 876.1666666666666 L 728 867.8333333333334 Q 728 904 691.8333333333334 904 L 548.1666666666666 904 Q 512 904 512 867.8333333333334 L 512 876.1666666666666 Q 512 840 548.1666666666666 840 Z"/></g><g transform="translate(-94,-726) scale(1,1)"><path fill="none" stroke="#ff7f00" d="M 548.1666666666666 840 L 691.8333333333334 840 Q 728 840 728 876.1666666666666 L 728 867.8333333333334 Q 728 904 691.8333333333334 904 L 548.1666666666666 904 Q 512 904 512 867.8333333333334 L 512 876.1666666666666 Q 512 840 548.1666666666666 840 Z" stroke-miterlimit="10"/></g><g transform="translate(-94,-726) scale(1,1)"><rect fill="#ffffff" stroke="none" x="144" y="832" width="160" height="112"/></g><g transform="translate(-94,-726) scale(1,1)"><path fill="none" stroke="#ff2b2b" d="M 144 832 L 304 832 L 304 944 L 144 944 L 144 832 Z Z" stroke-miterlimit="10"/></g><g transform="translate(-94,-726) scale(1,1)"><g><path fill="none" stroke="none"/><text fill="#000000" stroke="none" font-family="Arial" font-size="11px" font-style="normal" font-weight="normal" text-decoration="none" x="565" y="864">           元空间</text></g></g><g transform="translate(-94,-726) scale(1,1)"><g><path fill="none" stroke="none"/><text fill="#000000" stroke="none" font-family="Arial" font-size="11px" font-style="normal" font-weight="normal" text-decoration="none" x="565" y="877">    MetaspaceSize</text></g></g><g transform="translate(-94,-726) scale(1,1)"><g><path fill="none" stroke="none"/><text fill="#000000" stroke="none" font-family="Arial" font-size="11px" font-style="normal" font-weight="normal" text-decoration="none" x="565" y="890"> MaxMetaspaceSize </text></g></g><g transform="translate(-94,-726) scale(1,1)"><g><path fill="none" stroke="none"/><text fill="#000000" stroke="none" font-family="Arial" font-size="11px" font-style="normal" font-weight="normal" text-decoration="none" x="205" y="848"> 年轻代</text></g></g><g transform="translate(-94,-726) scale(1,1)"><g><path fill="none" stroke="none"/><text fill="#000000" stroke="none" font-family="Arial" font-size="11px" font-style="normal" font-weight="normal" text-decoration="none" x="205" y="861">( Xmn )</text></g></g><g transform="translate(-94,-726) scale(1,1)"><rect fill="#ffffff" stroke="none" x="328" y="832" width="144" height="112"/></g><g transform="translate(-94,-726) scale(1,1)"><path fill="none" stroke="#00ff00" d="M 328 832 L 472 832 L 472 944 L 328 944 L 328 832 Z Z" stroke-miterlimit="10"/></g><g transform="translate(-94,-726) scale(1,1)"><g><path fill="none" stroke="none"/><text fill="#000000" stroke="none" font-family="Arial" font-size="11px" font-style="normal" font-weight="normal" text-decoration="none" x="373" y="848">    老年代</text></g></g><g transform="translate(-94,-726) scale(1,1)"><g><path fill="none" stroke="none"/><text fill="#000000" stroke="none" font-family="Arial" font-size="11px" font-style="normal" font-weight="normal" text-decoration="none" x="373" y="861">( Xmx-Xmn)</text></g></g><g transform="translate(-94,-726) scale(1,1)"><g><path fill="none" stroke="none"/><text fill="#000000" stroke="none" font-family="Arial" font-size="11px" font-style="normal" font-weight="normal" text-decoration="none" x="197" y="936">1:3 堆空间</text></g></g><g transform="translate(-94,-726) scale(1,1)"><rect fill="#ffffff" stroke="none" x="160" y="864" width="40" height="49"/></g><g transform="translate(-94,-726) scale(1,1)"><path fill="none" stroke="#00d8b4" d="M 160 864 L 200 864 L 200 913 L 160 913 L 160 864 Z Z" stroke-miterlimit="10"/></g><g transform="translate(-94,-726) scale(1,1)"><rect fill="#ffffff" stroke="none" x="208" y="864" width="40" height="49"/></g><g transform="translate(-94,-726) scale(1,1)"><path fill="none" stroke="#00d8b4" d="M 208 864 L 248 864 L 248 913 L 208 913 L 208 864 Z Z" stroke-miterlimit="10"/></g><g transform="translate(-94,-726) scale(1,1)"><rect fill="#ffffff" stroke="none" x="248" y="864" width="40" height="49"/></g><g transform="translate(-94,-726) scale(1,1)"><path fill="none" stroke="#00d8b4" d="M 248 864 L 288 864 L 288 913 L 248 913 L 248 864 Z Z" stroke-miterlimit="10"/></g><g transform="translate(-94,-726) scale(1,1)"><g><path fill="none" stroke="none"/><text fill="#000000" stroke="none" font-family="Arial" font-size="11px" font-style="normal" font-weight="normal" text-decoration="none" x="165" y="888"> eden</text></g></g><g transform="translate(-94,-726) scale(1,1)"><g><path fill="none" stroke="none"/><text fill="#000000" stroke="none" font-family="Arial" font-size="11px" font-style="normal" font-weight="normal" text-decoration="none" x="165" y="901">(8:10)</text></g></g><g transform="translate(-94,-726) scale(1,1)"><g><path fill="none" stroke="none"/><text fill="#000000" stroke="none" font-family="Arial" font-size="11px" font-style="normal" font-weight="normal" text-decoration="none" x="213" y="888"> from</text></g></g><g transform="translate(-94,-726) scale(1,1)"><g><path fill="none" stroke="none"/><text fill="#000000" stroke="none" font-family="Arial" font-size="11px" font-style="normal" font-weight="normal" text-decoration="none" x="213" y="901">(1:10)</text></g></g><g transform="translate(-94,-726) scale(1,1)"><g><path fill="none" stroke="none"/><text fill="#000000" stroke="none" font-family="Arial" font-size="11px" font-style="normal" font-weight="normal" text-decoration="none" x="253" y="888">  to</text></g></g><g transform="translate(-94,-726) scale(1,1)"><g><path fill="none" stroke="none"/><text fill="#000000" stroke="none" font-family="Arial" font-size="11px" font-style="normal" font-weight="normal" text-decoration="none" x="253" y="901">(1:10)</text></g></g><g transform="translate(-94,-726) scale(1,1)"><g><path fill="none" stroke="none"/><text fill="#000000" stroke="none" font-family="Arial" font-size="11px" font-style="normal" font-weight="normal" text-decoration="none" x="373" y="936">2:3 堆空间</text></g></g><g transform="translate(-94,-726) scale(1,1)"><g><path fill="none" stroke="none"/><text fill="#000000" stroke="none" font-family="Arial" font-size="11px" font-style="normal" font-weight="normal" text-decoration="none" x="597" y="792">栈(Xss)</text></g></g><g transform="translate(-94,-726) scale(1,1)"><path fill="#ffffff" stroke="none" d="M 548.1666666666666 920 L 691.8333333333334 920 Q 728 920 728 956.1666666666666 L 728 947.8333333333334 Q 728 984 691.8333333333334 984 L 548.1666666666666 984 Q 512 984 512 947.8333333333334 L 512 956.1666666666666 Q 512 920 548.1666666666666 920 Z"/></g><g transform="translate(-94,-726) scale(1,1)"><path fill="none" stroke="#00b799" d="M 548.1666666666666 920 L 691.8333333333334 920 Q 728 920 728 956.1666666666666 L 728 947.8333333333334 Q 728 984 691.8333333333334 984 L 548.1666666666666 984 Q 512 984 512 947.8333333333334 L 512 956.1666666666666 Q 512 920 548.1666666666666 920 Z" stroke-miterlimit="10"/></g><g transform="translate(-94,-726) scale(1,1)"><g><path fill="none" stroke="none"/><text fill="#000000" stroke="none" font-family="Arial" font-size="11px" font-style="normal" font-weight="normal" text-decoration="none" x="557" y="944">           堆外内存</text></g></g><g transform="translate(-94,-726) scale(1,1)"><g><path fill="none" stroke="none"/><text fill="#000000" stroke="none" font-family="Arial" font-size="11px" font-style="normal" font-weight="normal" text-decoration="none" x="557" y="957">MaxDirectMemorySize</text></g></g><g transform="translate(-94,-726) scale(1,1)"><g><path fill="none" stroke="none"/><text fill="#000000" stroke="none" font-family="Arial" font-size="13px" font-style="normal" font-weight="normal" text-decoration="none" x="381" y="1010">JVM参数关系</text></g></g><g transform="translate(-94,-726) scale(1,1)"><g><path fill="none" stroke="none"/><text fill="#000000" stroke="none" font-family="Arial" font-size="11px" font-style="normal" font-weight="normal" text-decoration="none" x="253" y="968">比例调整(NewRatio)</text></g></g></g></svg>